<svg width="745" height="251" viewBox="0 0 745 251" fill="none" xmlns="http://www.w3.org/2000/svg">
<path opacity="0.75" d="M103.653 87.2947C105.143 81.2026 110.524 62.5265 128.344 49.0065C130.26 47.5516 159.013 26.5356 192.04 39.7493C223.193 52.2142 230.516 84.0955 231.367 88.1455C236.459 112.242 226.625 131.394 223.704 136.644C203.551 128.416 183.406 120.197 163.253 111.969" fill="url(#paint0_linear_172_2499)"/>
<path d="M167.485 190.485C149.349 190.485 131.69 184.938 116.552 174.302C97.131 160.655 84.1893 140.268 80.1109 116.904C71.6988 68.6526 104.13 22.5622 152.406 14.1473C175.794 10.0717 199.371 15.347 218.783 28.9861C238.204 42.6337 251.146 63.02 255.224 86.3843C259.303 109.757 254.024 133.317 240.375 152.725C226.718 172.133 206.318 185.066 182.938 189.141C177.778 190.043 172.61 190.485 167.485 190.485ZM167.808 35.98C164.019 35.98 160.196 36.3119 156.39 36.9755C120.707 43.1952 96.7393 77.2632 102.955 112.922C105.969 130.194 115.53 145.263 129.885 155.354C144.241 165.436 161.661 169.333 178.953 166.321C196.237 163.309 211.316 153.754 221.414 139.409C231.503 125.064 235.403 107.655 232.389 90.3747C229.375 73.1025 219.813 58.034 205.458 47.9515C194.27 40.0896 181.218 35.9886 167.817 35.9886L167.808 35.98Z" fill="url(#paint1_linear_172_2499)"/>
<path d="M252.304 75.2977C251.938 72.541 249.894 68.3122 248.345 64.9089C238.528 43.3058 220.886 26.8164 198.664 18.4781C179.609 11.3225 159.141 10.9056 140.069 17.1168L154.202 37.3159C166.224 34.8229 178.732 35.7503 190.516 40.1747C206.94 46.3434 219.984 58.5275 227.238 74.4979C228.396 77.0504 229.136 80.4879 230.192 82.2832C231.248 84.0784 233.947 86.4863 236.808 87.3627C241.618 88.8347 249.613 85.5334 251.767 79.4158C252.108 78.4543 252.449 76.3357 252.312 75.3147L252.304 75.2977Z" fill="url(#paint2_linear_172_2499)"/>
<path d="M215.846 153.108C220.963 148.956 225.382 144.123 229.009 138.788L98.374 85.1165C97.1991 91.4128 96.9351 97.9473 97.6674 104.558L215.854 153.116L215.846 153.108Z" fill="white"/>
<path d="M75.7431 70.048C76.3391 68.6016 78.408 67.9039 79.2084 67.6571C82.4268 66.6446 85.2195 68.0315 85.9006 68.3888C86.9564 66.032 88.1399 63.556 89.4851 60.995C90.8559 58.3829 92.2523 55.958 93.6231 53.7117C77.6588 47.0666 63.0994 47.4325 57.2586 52.7758C53.6315 56.0941 51.8861 60.2462 51.8861 60.2462C46.9307 72.2942 52.2096 85.3462 80.3238 97.4027C80.5792 91.0724 81.5072 84.8187 83.0483 78.7351C76.9862 75.8423 74.5596 72.9239 75.7431 70.048Z" fill="white"/>
<path d="M97.6589 104.55C96.9266 97.9388 97.1906 91.4043 98.3655 85.108L85.3727 79.7732C84.2914 79.3308 83.2953 78.8883 82.3672 78.4544C80.9623 84.5975 80.2642 90.9448 80.3238 97.4028C81.1156 97.7431 81.9159 98.0834 82.7418 98.4153L97.6589 104.541V104.55Z" fill="white"/>
<path d="M229.009 138.788C225.382 144.123 220.963 148.956 215.846 153.108C219.158 154.282 222.495 155.482 225.841 156.698C228.413 157.634 230.967 158.57 233.504 159.515C235.624 157.447 237.872 155.073 240.128 152.385C242.325 149.764 244.232 147.228 245.867 144.846" fill="white"/>
<path d="M255.982 143.493C256.595 142.047 255.633 140.098 255.25 139.349C253.709 136.355 250.763 135.342 250.022 135.112C250.959 132.704 251.887 130.118 252.764 127.37C253.658 124.562 254.407 121.865 255.037 119.304C270.993 125.974 280.963 136.584 281.269 144.489C281.457 149.398 279.737 153.559 279.737 153.559C274.654 165.547 261.653 170.975 233.3 159.472C237.617 154.843 241.423 149.781 244.675 144.412C250.993 146.684 254.781 146.36 255.999 143.493H255.982Z" fill="white"/>
<path d="M400.904 136.763L401.363 134.168C405.936 108.243 426.787 93.0124 450.789 93.0124C474.791 93.0124 490.261 108.243 485.689 134.168L485.229 136.763C480.657 162.688 459.805 177.918 435.804 177.918C411.802 177.918 396.331 162.688 400.904 136.763ZM464.871 136.278L465.161 134.661C467.817 119.593 460.223 111.161 447.579 111.161C434.935 111.161 424.361 119.584 421.704 134.661L421.415 136.278C418.758 151.346 426.515 159.778 438.997 159.778C451.479 159.778 462.215 151.355 464.871 136.278Z" fill="white"/>
<path d="M584.54 96.3647H604.651L603.05 105.435H605.97C606.677 104.167 607.843 102.372 609.682 100.636C615.106 95.5309 622.888 94.9097 629.282 94.3482C630.227 94.2631 631.002 94.2206 631.488 94.195C630.279 99.6405 629.069 105.086 627.852 110.531C626.149 110.642 623.62 110.914 620.632 111.637C616.077 112.735 609.461 114.232 604.557 119.712C600.691 124.034 599.363 128.68 598.861 131.045L590.798 176.744H570.364L584.548 96.3732L584.54 96.3647Z" fill="white"/>
<path d="M377.609 135.793C375.267 149.083 366.089 158.8 350.848 158.8C335.608 158.8 328.302 148.751 331.104 132.875L336.025 105.001C338.826 89.124 349.682 79.0755 364.922 79.0755C368.43 79.0755 375.25 79.4158 380.01 84.589C384.216 89.158 384.48 93.5229 384.054 97.3347C385.28 100.593 389.563 102.993 394.68 102.993C399.797 102.993 404.301 100.466 405.408 97.0879C405.995 90.2982 405.51 79.586 398.622 71.3753C389.673 60.6972 376.331 59.9569 368.294 59.9569C340.078 59.9569 319.711 76.1571 314.56 105.333L309.758 132.551C304.616 161.718 319.269 177.927 347.477 177.927C375.684 177.927 394.118 161.727 398.809 135.146L399.209 132.875H378.128L377.617 135.793H377.609Z" fill="white"/>
<path d="M576.4 63.3093H572.901C569.061 63.7772 565.945 65.7512 564.727 68.3463L558.154 105.596H555.234C552.833 99.9212 546.89 94.0929 532.296 94.0929C512.841 94.0929 493.343 109 488.712 135.248L488.252 137.843C483.62 164.092 498.018 178.999 517.311 178.999C531.904 178.999 539.908 173.162 544.727 167.011H547.647L545.936 176.736H566.047L584.991 69.3673C584.182 66.2617 580.759 63.8283 576.409 63.3093H576.4ZM553.156 135.742L552.867 137.359C550.125 152.912 539.099 161.182 526.609 161.182C514.118 161.182 506.013 152.921 508.754 137.359L509.044 135.742C511.785 120.188 522.649 111.918 535.302 111.918C547.954 111.918 555.898 120.18 553.148 135.742H553.156Z" fill="white"/>
<path d="M612.135 152.989C615.046 136.474 629.529 127.889 647.682 127.889H669.725L670.526 123.354C671.139 119.899 670.696 116.87 669.019 114.607C667.035 111.935 663.833 111.391 657.907 110.404C655.728 110.038 652.356 109.604 646.473 109.629C642.897 109.646 638.095 109.825 632.399 110.54C633.608 105.094 634.817 99.649 636.034 94.2036C639.287 94.0164 643.987 93.8037 649.657 93.7526C654.979 93.7016 658.265 93.676 661.151 93.8887C667.605 94.3737 680.087 95.165 686.464 103.759C690.27 108.889 691.615 115.951 690.049 124.826L684.761 154.784C684.191 158.026 685.528 159.642 688.44 159.642H694.919L691.948 176.48H678.333C670.389 176.48 665.306 172.269 666.447 165.794L666.473 165.632H663.391C661.219 169.682 654.595 178.752 637.737 178.752C620.879 178.752 609.223 169.521 612.135 153.006V152.989ZM666.745 144.735L667.035 143.119H646.456C638.835 143.119 633.701 146.522 632.671 152.35C631.641 158.179 635.464 162.229 644.216 162.229C655.557 162.229 664.864 155.431 666.754 144.735H666.745Z" fill="white"/>
<path d="M265.893 223.422L266.778 218.402C267.766 212.795 271.64 209.766 276.91 209.766C282.18 209.766 285.016 212.795 284.028 218.402L283.143 223.422C282.155 229.029 278.247 232.058 272.976 232.058C267.706 232.058 264.896 229.029 265.893 223.422ZM279.788 223.549L280.716 218.283C281.321 214.854 279.737 212.735 276.391 212.735C273.045 212.735 270.72 214.845 270.107 218.283L269.179 223.549C268.575 226.978 270.167 229.088 273.504 229.088C276.842 229.088 279.183 226.978 279.788 223.549Z" fill="#BE5FDB"/>
<path d="M288.379 216.53H291.478L291.163 218.308H291.657C292.372 217.049 293.547 216.47 295.165 216.47H296.97L296.467 219.321H294.535C292.483 219.321 290.848 220.427 290.439 222.75L288.873 231.632H285.714L288.379 216.53Z" fill="#BE5FDB"/>
<path d="M297.693 223.702C298.528 218.955 302.223 216.104 306.054 216.104C309 216.104 310.201 217.449 310.712 218.708H311.206L311.589 216.53H314.654L311.444 234.721C311.112 236.593 309.741 237.75 307.877 237.75H297.702L298.187 234.993H307.383C307.962 234.993 308.328 234.687 308.43 234.074L309.281 229.267H308.788C307.911 230.433 306.267 231.717 303.296 231.717C299.464 231.717 296.782 228.867 297.608 224.153L297.693 223.694V223.702ZM310.226 224.068L310.278 223.796C310.823 220.699 309.179 218.895 306.421 218.895C303.662 218.895 301.414 220.699 300.869 223.796L300.818 224.068C300.273 227.157 301.942 228.969 304.641 228.969C307.34 228.969 309.682 227.165 310.226 224.068Z" fill="#BE5FDB"/>
<path d="M316.433 227.285C316.97 224.222 319.703 222.63 323.015 222.63H327.613L327.783 221.652C328.089 219.908 327.255 218.742 325.05 218.742C322.845 218.742 321.602 219.874 320.946 221.499L318.17 220.546C319.328 218.155 321.678 216.104 325.544 216.104C329.409 216.104 331.487 218.189 330.84 221.865L329.741 228.084C329.631 228.697 329.886 229.003 330.439 229.003H331.725L331.257 231.641H328.898C327.485 231.641 326.651 230.841 326.872 229.59L326.889 229.497H326.395C325.765 230.475 324.377 232.066 321.252 232.066C318.128 232.066 315.889 230.348 316.425 227.285H316.433ZM327.127 225.379L327.178 225.072H322.768C321.082 225.072 319.848 225.804 319.609 227.182C319.371 228.561 320.316 229.446 322.181 229.446C324.692 229.446 326.685 227.914 327.127 225.37V225.379Z" fill="#BE5FDB"/>
<path d="M336.995 216.53H340.095L339.694 218.793H340.188C340.989 217.568 342.53 216.283 345.442 216.283C348.873 216.283 350.933 218.674 350.252 222.562L348.651 231.624H345.493L347.051 222.801C347.519 220.163 346.344 218.972 344.045 218.972C341.44 218.972 339.413 220.75 338.834 223.992L337.489 231.615H334.33L336.995 216.513V216.53Z" fill="#BE5FDB"/>
<path d="M356.008 212.335C356.238 211.05 357.302 210.191 358.562 210.191C359.822 210.191 360.588 211.05 360.359 212.335C360.129 213.62 359.03 214.479 357.804 214.479C356.578 214.479 355.778 213.62 356.008 212.335ZM355.846 216.53H359.005L356.34 231.632H353.181L355.846 216.53Z" fill="#BE5FDB"/>
<path d="M361.099 227.77L371.453 219.618L371.529 219.193H362.921L363.39 216.53H375.437L374.748 220.418L364.36 228.561L364.292 228.961H373.488L373.019 231.624H360.427L361.108 227.761L361.099 227.77Z" fill="#BE5FDB"/>
<path d="M376.689 227.285C377.225 224.222 379.959 222.63 383.271 222.63H387.868L388.039 221.652C388.345 219.908 387.511 218.742 385.305 218.742C383.1 218.742 381.857 219.874 381.202 221.499L378.426 220.546C379.584 218.155 381.934 216.104 385.799 216.104C389.665 216.104 391.742 218.189 391.095 221.865L389.997 228.084C389.886 228.697 390.142 229.003 390.695 229.003H391.981L391.512 231.641H389.154C387.741 231.641 386.906 230.841 387.128 229.59L387.145 229.497H386.651C386.021 230.475 384.633 232.066 381.508 232.066C378.383 232.066 376.144 230.348 376.681 227.285H376.689ZM387.383 225.379L387.434 225.072H383.024C381.338 225.072 380.103 225.804 379.865 227.182C379.626 228.561 380.572 229.446 382.436 229.446C384.948 229.446 386.94 227.914 387.383 225.37V225.379Z" fill="#BE5FDB"/>
<path d="M396.927 237.325L397.941 235.393C398.588 235.734 399.363 236.006 400.41 236.006C401.236 236.006 401.908 235.699 402.019 235.053C402.13 234.406 401.687 234.134 400.682 234.134H399.55L400.078 231.99C396.331 231.53 393.999 228.74 394.79 224.273L394.859 223.873C395.718 219.006 399.601 216.096 403.986 216.096C408.371 216.096 410.329 218.734 410.346 221.916L407.17 222.562C407.247 220.537 406.217 218.921 403.552 218.921C400.887 218.921 398.571 220.759 398.009 223.941L397.958 224.213C397.396 227.395 399.099 229.233 401.73 229.233C404.36 229.233 405.987 227.702 406.727 225.591L409.665 226.298C408.515 229.148 406.004 231.598 402.317 231.998L402.062 232.917C403.654 232.917 404.641 233.777 404.352 235.402C404.028 237.24 402.104 238.065 400.171 238.065C398.886 238.065 397.719 237.724 396.927 237.333V237.325Z" fill="#BE5FDB"/>
<path d="M412.16 227.285C412.696 224.222 415.429 222.63 418.741 222.63H423.339L423.509 221.652C423.816 219.908 422.981 218.742 420.776 218.742C418.571 218.742 417.328 219.874 416.672 221.499L413.896 220.546C415.054 218.155 417.404 216.104 421.27 216.104C425.135 216.104 427.213 218.189 426.566 221.865L425.467 228.084C425.357 228.697 425.612 229.003 426.166 229.003H427.451L426.983 231.641H424.624C423.211 231.641 422.377 230.841 422.598 229.59L422.615 229.497H422.121C421.491 230.475 420.103 232.066 416.979 232.066C413.854 232.066 411.615 230.348 412.151 227.285H412.16ZM416.578 213.867L417.839 212.122C418.554 211.17 419.439 210.71 420.444 210.71C421.304 210.71 421.857 211.05 422.402 211.748C422.785 212.174 423.075 212.607 423.569 212.607C424.122 212.607 424.497 212.208 424.846 211.782L425.646 210.744L427.255 211.876L425.97 213.62C425.289 214.539 424.403 215.032 423.39 215.032C422.504 215.032 421.951 214.692 421.398 213.994C421.04 213.569 420.75 213.135 420.231 213.135C419.712 213.135 419.337 213.535 418.979 213.96L418.188 214.973L416.57 213.867H416.578ZM422.853 225.379L422.905 225.072H418.494C416.808 225.072 415.574 225.804 415.335 227.182C415.097 228.561 416.042 229.446 417.907 229.446C420.418 229.446 422.411 227.914 422.853 225.37V225.379Z" fill="#BE5FDB"/>
<path d="M430.244 224.307L430.329 223.847C431.172 219.065 434.978 216.096 439.507 216.096C444.037 216.096 446.83 219.065 445.987 223.847L445.902 224.307C445.05 229.114 441.227 232.058 436.689 232.058C432.151 232.058 429.392 229.114 430.244 224.307ZM442.76 224.222L442.811 223.949C443.364 220.827 441.798 218.929 439.005 218.929C436.212 218.929 434.007 220.827 433.462 223.949L433.411 224.222C432.858 227.378 434.424 229.242 437.183 229.242C439.942 229.242 442.198 227.37 442.76 224.222Z" fill="#BE5FDB"/>
<path d="M456.911 224.281L456.979 223.915C457.813 219.202 461.449 216.104 465.893 216.104C470.338 216.104 472.645 219.167 471.836 223.762L471.623 224.953H460.01C459.635 227.616 461.202 229.301 463.748 229.301C466.14 229.301 467.4 228.076 468.286 226.672L470.687 228.016C469.461 229.761 467.273 232.058 463.203 232.058C458.605 232.058 456.085 228.961 456.911 224.281ZM468.873 222.537C469.086 220.274 467.741 218.895 465.382 218.895C463.024 218.895 461.185 220.274 460.478 222.537H468.873Z" fill="#BE5FDB"/>
<path d="M485.757 210.191H494.28C498.23 210.191 500.649 212.642 499.95 216.589L499.882 216.989C499.176 220.971 495.778 223.388 491.947 223.388H486.736L485.28 231.624H481.968L485.749 210.183L485.757 210.191ZM492.143 220.393C494.442 220.393 496.204 219.108 496.579 216.964L496.63 216.658C497.013 214.479 495.77 213.195 493.411 213.195H488.541L487.273 220.393H492.143Z" fill="#BE5FDB"/>
<path d="M503.22 216.53H506.319L506.004 218.308H506.498C507.213 217.049 508.388 216.47 510.006 216.47H511.811L511.308 219.321H509.376C507.324 219.321 505.689 220.427 505.28 222.75L503.714 231.632H500.555L503.22 216.53Z" fill="#BE5FDB"/>
<path d="M512.415 224.307L512.5 223.847C513.343 219.065 517.149 216.096 521.679 216.096C526.208 216.096 529.001 219.065 528.158 223.847L528.073 224.307C527.222 229.114 523.399 232.058 518.861 232.058C514.322 232.058 511.564 229.114 512.415 224.307ZM524.94 224.222L524.991 223.949C525.544 220.827 523.978 218.929 521.185 218.929C518.392 218.929 516.187 220.827 515.642 223.949L515.591 224.222C515.038 227.378 516.604 229.242 519.363 229.242C522.121 229.242 524.378 227.37 524.94 224.222Z" fill="#BE5FDB"/>
<path d="M531.266 224.307L531.351 223.847C532.211 218.98 535.906 216.096 539.704 216.096C542.649 216.096 543.867 217.355 544.352 218.58H544.846L546.328 210.191H549.486L545.706 231.632H542.607L542.982 229.488H542.488C541.492 230.807 539.831 232.058 536.885 232.058C533.114 232.058 530.397 229.207 531.266 224.307ZM543.884 224.222L543.935 223.949C544.506 220.699 542.862 218.895 540.104 218.895C537.345 218.895 535.097 220.699 534.527 223.949L534.476 224.222C533.905 227.472 535.574 229.301 538.265 229.301C540.955 229.301 543.305 227.463 543.884 224.222Z" fill="#BE5FDB"/>
<path d="M551.274 225.6L552.875 216.538H556.034L554.476 225.387C554.016 227.991 555.183 229.216 557.507 229.216C560.112 229.216 562.113 227.438 562.692 224.162L564.037 216.538H567.196L564.531 231.641H561.432L561.832 229.378H561.338C560.538 230.637 558.988 231.922 556.111 231.922C552.645 231.922 550.593 229.505 551.274 225.608V225.6Z" fill="#BE5FDB"/>
<path d="M572.381 228.595L574.042 219.193H569.87L570.338 216.53H574.51L575.387 211.535H578.546L577.669 216.53H582.173L581.705 219.193H577.2L575.642 228.042C575.532 228.654 575.753 228.961 576.34 228.961H579.499L579.031 231.624H574.859C572.986 231.624 572.058 230.458 572.39 228.595H572.381Z" fill="#BE5FDB"/>
<path d="M586.038 212.335C586.268 211.05 587.332 210.191 588.593 210.191C589.853 210.191 590.619 211.05 590.389 212.335C590.159 213.62 589.061 214.479 587.835 214.479C586.609 214.479 585.808 213.62 586.038 212.335ZM585.885 216.53H589.044L586.379 231.632H583.22L585.885 216.53Z" fill="#BE5FDB"/>
<path d="M592.135 216.53H595.472L597.235 229.301H597.728L603.995 216.53H607.333L599.585 231.632H594.561L592.135 216.53Z" fill="#BE5FDB"/>
<path d="M610.559 212.335C610.789 211.05 611.854 210.191 613.114 210.191C614.374 210.191 615.14 211.05 614.91 212.335C614.68 213.62 613.582 214.479 612.356 214.479C611.13 214.479 610.329 213.62 610.559 212.335ZM610.406 216.53H613.565L610.9 231.632H607.741L610.406 216.53Z" fill="#BE5FDB"/>
<path d="M616.145 224.307L616.23 223.847C617.09 218.98 620.785 216.096 624.582 216.096C627.528 216.096 628.746 217.355 629.231 218.58H629.725L631.207 210.191H634.365L630.585 231.632H627.486L627.86 229.488H627.367C626.37 230.807 624.71 232.058 621.764 232.058C617.992 232.058 615.276 229.207 616.145 224.307ZM628.754 224.222L628.806 223.949C629.376 220.699 627.733 218.895 624.974 218.895C622.216 218.895 619.968 220.699 619.397 223.949L619.346 224.222C618.776 227.472 620.445 229.301 623.135 229.301C625.826 229.301 628.175 227.463 628.754 224.222Z" fill="#BE5FDB"/>
<path d="M635.021 227.285C635.557 224.222 638.29 222.63 641.602 222.63H646.2L646.37 221.652C646.677 219.908 645.843 218.742 643.637 218.742C641.432 218.742 640.189 219.874 639.533 221.499L636.758 220.546C637.916 218.155 640.266 216.104 644.131 216.104C647.997 216.104 650.074 218.189 649.427 221.865L648.329 228.084C648.218 228.697 648.474 229.003 649.027 229.003H650.313L649.844 231.641H647.486C646.072 231.641 645.238 230.841 645.459 229.59L645.476 229.497H644.983C644.353 230.475 642.965 232.066 639.84 232.066C636.715 232.066 634.476 230.348 635.012 227.285H635.021ZM645.715 225.379L645.766 225.072H641.356C639.67 225.072 638.435 225.804 638.197 227.182C637.958 228.561 638.903 229.446 640.768 229.446C643.28 229.446 645.272 227.914 645.715 225.37V225.379Z" fill="#BE5FDB"/>
<path d="M653.105 224.307L653.19 223.847C654.05 218.98 657.746 216.096 661.543 216.096C664.489 216.096 665.706 217.355 666.192 218.58H666.686L668.167 210.191H671.326L667.546 231.632H664.446L664.821 229.488H664.327C663.331 230.807 661.671 232.058 658.725 232.058C654.953 232.058 652.237 229.207 653.105 224.307ZM665.723 224.222L665.775 223.949C666.345 220.699 664.702 218.895 661.943 218.895C659.185 218.895 656.937 220.699 656.366 223.949L656.315 224.222C655.745 227.472 657.414 229.301 660.104 229.301C662.795 229.301 665.145 227.463 665.723 224.222Z" fill="#BE5FDB"/>
<path d="M672.756 224.281L672.824 223.915C673.659 219.202 677.294 216.104 681.739 216.104C686.183 216.104 688.491 219.167 687.682 223.762L687.469 224.953H675.855C675.481 227.616 677.047 229.301 679.593 229.301C681.986 229.301 683.246 228.076 684.131 226.672L686.532 228.016C685.306 229.761 683.118 232.058 679.048 232.058C674.451 232.058 671.93 228.961 672.756 224.281ZM684.71 222.537C684.923 220.274 683.578 218.895 681.219 218.895C678.861 218.895 677.022 220.274 676.315 222.537H684.71Z" fill="#BE5FDB"/>
<defs>
<linearGradient id="paint0_linear_172_2499" x1="204.156" y1="148.071" x2="142.236" y2="40.7494" gradientUnits="userSpaceOnUse">
<stop offset="0.54" stop-color="#242424" stop-opacity="0"/>
<stop offset="1" stop-color="#F3F3F3"/>
</linearGradient>
<linearGradient id="paint1_linear_172_2499" x1="244.714" y1="57.2802" x2="90.7024" y2="146.152" gradientUnits="userSpaceOnUse">
<stop offset="0.1"/>
<stop offset="0.24" stop-color="#DF9D42"/>
<stop offset="0.37" stop-color="#FFB44C"/>
<stop offset="0.56" stop-color="#BE5FDB"/>
<stop offset="0.72" stop-color="#4D30B5"/>
<stop offset="0.8" stop-color="#3F2AB0"/>
<stop offset="1"/>
</linearGradient>
<linearGradient id="paint2_linear_172_2499" x1="136.706" y1="28.084" x2="256.267" y2="64.6397" gradientUnits="userSpaceOnUse">
<stop stop-color="#F4A366"/>
<stop offset="1" stop-color="#FFB44C"/>
</linearGradient>
</defs>
</svg>
