<svg width="645" height="223" viewBox="0 0 645 223" fill="none" xmlns="http://www.w3.org/2000/svg">
<path opacity="0.75" d="M172.521 127.638C152.495 153.827 116.608 162.012 87.9826 147.463C60.9242 133.704 46.2966 102.657 52.9889 72.2902C72.8612 82.5429 92.7336 92.7956 112.606 103.048" fill="url(#paint0_linear_341_239)"/>
<path d="M117.485 177.889C99.3491 177.889 81.6905 172.341 66.5521 161.706C47.131 148.058 34.1893 127.672 30.1109 104.308C21.6988 56.056 54.1297 9.9656 102.406 1.55072C125.794 -2.52484 149.371 2.75041 168.783 16.3895C188.204 30.0371 201.146 50.4234 205.224 73.7877C209.303 97.1604 204.024 120.72 190.375 140.128C176.718 159.536 156.318 172.469 132.938 176.545C127.778 177.446 122.61 177.889 117.485 177.889ZM117.808 23.3835C114.019 23.3835 110.196 23.7153 106.39 24.379C70.7071 30.5986 46.7393 64.6666 52.9548 100.326C55.9688 117.598 65.5304 132.666 79.8855 142.757C94.2405 152.84 111.661 156.737 128.953 153.725C146.237 150.713 161.316 141.158 171.414 126.812C181.503 112.467 185.403 95.0589 182.389 77.7781C179.375 60.5059 169.813 45.4374 155.458 35.3549C144.27 27.4931 131.218 23.392 117.817 23.392L117.808 23.3835Z" fill="url(#paint1_linear_341_239)"/>
<path opacity="0.76" d="M202.304 62.7011C201.938 59.9444 199.894 55.7157 198.345 52.3123C188.528 30.7093 170.886 14.2198 148.664 5.88152C129.609 -1.2741 109.141 -1.69102 90.0686 4.52017L104.202 24.7193C116.224 22.2263 128.732 23.1537 140.516 27.5781C156.94 33.7468 169.984 45.9309 177.238 61.9013C178.396 64.4539 179.137 67.8913 180.192 69.6866C181.248 71.4819 183.947 73.8898 186.808 74.7661C191.618 76.2381 199.613 72.9368 201.768 66.8192C202.108 65.8578 202.449 63.7392 202.312 62.7181L202.304 62.7011Z" fill="url(#paint2_linear_341_239)"/>
<path d="M165.846 140.511C170.963 136.359 175.382 131.526 179.009 126.191L48.3741 72.5199C47.1991 78.8162 46.9352 85.3507 47.6674 91.9618L165.854 140.52L165.846 140.511Z" fill="black"/>
<path d="M205.982 130.897C206.595 129.45 205.633 127.502 205.25 126.753C203.709 123.758 200.763 122.745 200.022 122.516C200.959 120.108 201.887 117.521 202.764 114.773C203.658 111.965 204.407 109.268 205.037 106.707C220.993 113.378 230.963 123.988 231.27 131.892C231.457 136.801 229.737 140.962 229.737 140.962C224.654 152.951 211.653 158.379 183.3 146.875C187.617 142.247 191.423 137.184 194.675 131.815C200.993 134.087 204.782 133.764 205.999 130.897H205.982Z" fill="black"/>
<path d="M25.7432 57.4514C26.3392 56.0049 28.4081 55.3072 29.2085 55.0605C32.4269 54.048 35.2196 55.4349 35.9007 55.7922C36.9565 53.4354 38.14 50.9594 39.4852 48.3984C40.856 45.7863 42.2524 43.3614 43.6232 41.1151C27.6589 34.47 13.0995 34.8359 7.25865 40.1792C3.63157 43.4975 1.88614 47.6496 1.88614 47.6496C-3.06918 59.6976 2.20968 72.7496 30.3239 84.8061C30.5793 78.4758 31.5073 72.2221 33.0484 66.1385C26.9863 63.2457 24.5597 60.3273 25.7432 57.4514Z" fill="black"/>
<path d="M47.6589 91.9532C46.9267 85.3422 47.1906 78.8077 48.3656 72.5114L35.3728 67.1766C34.2915 66.7341 33.2953 66.2917 32.3673 65.8578C30.9624 72.0009 30.2642 78.3482 30.3238 84.8061C31.1157 85.1465 31.916 85.4868 32.7419 85.8186L47.6589 91.9447V91.9532Z" fill="black"/>
<path d="M179.009 126.191C175.382 131.526 170.963 136.359 165.846 140.511C169.158 141.685 172.495 142.885 175.841 144.102C178.413 145.038 180.967 145.974 183.504 146.918C185.624 144.85 187.872 142.477 190.128 139.788C192.325 137.167 194.232 134.632 195.867 132.249" fill="black"/>
<path d="M350.904 120.763L351.364 118.168C355.936 92.2425 376.787 77.0124 400.789 77.0124C424.791 77.0124 440.261 92.2425 435.689 118.168L435.229 120.763C430.657 146.688 409.806 161.918 385.804 161.918C361.802 161.918 346.332 146.688 350.904 120.763ZM414.872 120.278L415.161 118.661C417.818 103.593 410.223 95.1609 397.579 95.1609C384.935 95.1609 374.361 103.584 371.704 118.661L371.415 120.278C368.758 135.346 376.515 143.778 388.997 143.778C401.479 143.778 412.215 135.355 414.872 120.278Z" fill="black"/>
<path d="M534.54 80.3647H554.651L553.05 89.4347H555.97C556.677 88.167 557.843 86.3717 559.682 84.636C565.106 79.5309 572.888 78.9097 579.282 78.3482C580.227 78.2631 581.002 78.2206 581.488 78.195C580.279 83.6405 579.069 89.0859 577.852 94.5313C576.149 94.6419 573.62 94.9142 570.632 95.6374C566.077 96.735 559.461 98.2325 554.557 103.712C550.691 108.034 549.363 112.68 548.861 115.045L540.798 160.744H520.364L534.548 80.3732L534.54 80.3647Z" fill="black"/>
<path d="M327.609 119.793C325.267 133.083 316.089 142.8 300.848 142.8C285.608 142.8 278.302 132.751 281.104 116.875L286.025 89.0008C288.826 73.124 299.682 63.0755 314.922 63.0755C318.43 63.0755 325.25 63.4158 330.01 68.589C334.216 73.158 334.48 77.5229 334.054 81.3347C335.28 84.5934 339.563 86.9928 344.68 86.9928C349.797 86.9928 354.301 84.4658 355.408 81.0879C355.995 74.2982 355.51 63.586 348.622 55.3753C339.673 44.6972 326.331 43.9569 318.294 43.9569C290.078 43.9569 269.712 60.1571 264.56 89.3326L259.758 116.551C254.616 145.718 269.269 161.927 297.477 161.927C325.684 161.927 344.118 145.727 348.809 119.146L349.209 116.875H328.128L327.617 119.793H327.609Z" fill="black"/>
<path d="M526.4 47.3093H522.901C519.061 47.7772 515.945 49.7512 514.727 52.3463L508.154 89.5964H505.234C502.833 83.9212 496.89 78.0929 482.296 78.0929C462.841 78.0929 443.343 92.9998 438.712 119.248L438.252 121.844C433.62 148.092 448.018 162.999 467.311 162.999C481.905 162.999 489.908 157.162 494.727 151.011H497.647L495.936 160.736H516.047L534.991 53.3673C534.182 50.2617 530.759 47.8283 526.409 47.3093H526.4ZM503.156 119.742L502.867 121.359C500.125 136.912 489.099 145.182 476.609 145.182C464.118 145.182 456.013 136.921 458.754 121.359L459.044 119.742C461.785 104.188 472.65 95.9182 485.302 95.9182C497.954 95.9182 505.898 104.18 503.148 119.742H503.156Z" fill="black"/>
<path d="M562.135 136.989C565.046 120.474 579.529 111.889 597.682 111.889H619.725L620.526 107.354C621.139 103.899 620.696 100.87 619.019 98.6069C617.035 95.9352 613.833 95.3907 607.907 94.4037C605.728 94.0379 602.356 93.6039 596.473 93.6294C592.897 93.6465 588.095 93.8251 582.399 94.5399C583.608 89.0944 584.817 83.649 586.034 78.2036C589.287 78.0164 593.987 77.8037 599.657 77.7526C604.978 77.7016 608.265 77.6761 611.151 77.8888C617.605 78.3738 630.087 79.165 636.464 87.7586C640.27 92.8892 641.615 99.9513 640.049 108.826L634.761 138.784C634.191 142.026 635.528 143.642 638.44 143.642H644.919L641.947 160.481H628.333C620.389 160.481 615.306 156.269 616.447 149.794L616.473 149.632H613.391C611.219 153.682 604.595 162.752 587.737 162.752C570.879 162.752 559.223 153.521 562.135 137.006V136.989ZM616.745 128.735L617.035 127.119H596.456C588.835 127.119 583.701 130.522 582.671 136.35C581.641 142.179 585.464 146.229 594.216 146.229C605.557 146.229 614.864 139.431 616.754 128.735H616.745Z" fill="black"/>
<path d="M215.893 207.422L216.778 202.402C217.766 196.795 221.64 193.766 226.91 193.766C232.18 193.766 235.016 196.795 234.028 202.402L233.143 207.422C232.155 213.029 228.247 216.058 222.977 216.058C217.706 216.058 214.896 213.029 215.893 207.422ZM229.788 207.549L230.716 202.283C231.321 198.854 229.737 196.735 226.391 196.735C223.045 196.735 220.72 198.845 220.107 202.283L219.179 207.549C218.575 210.978 220.167 213.088 223.504 213.088C226.842 213.088 229.183 210.978 229.788 207.549Z" fill="#BE5FDB"/>
<path d="M238.379 200.53H241.478L241.163 202.308H241.657C242.372 201.049 243.547 200.47 245.165 200.47H246.97L246.467 203.321H244.535C242.483 203.321 240.848 204.427 240.439 206.75L238.873 215.632H235.714L238.379 200.53Z" fill="#BE5FDB"/>
<path d="M247.694 207.702C248.528 202.955 252.223 200.104 256.055 200.104C259.001 200.104 260.201 201.449 260.712 202.708H261.206L261.589 200.53H264.654L261.444 218.721C261.112 220.593 259.741 221.75 257.877 221.75H247.702L248.187 218.993H257.383C257.962 218.993 258.328 218.687 258.43 218.074L259.282 213.267H258.788C257.911 214.433 256.267 215.717 253.296 215.717C249.465 215.717 246.783 212.867 247.608 208.153L247.694 207.694V207.702ZM260.227 208.068L260.278 207.796C260.823 204.699 259.179 202.895 256.421 202.895C253.662 202.895 251.414 204.699 250.869 207.796L250.818 208.068C250.273 211.157 251.942 212.969 254.641 212.969C257.34 212.969 259.682 211.165 260.227 208.068Z" fill="#BE5FDB"/>
<path d="M266.433 211.285C266.97 208.222 269.703 206.63 273.015 206.63H277.613L277.783 205.652C278.09 203.908 277.255 202.742 275.05 202.742C272.845 202.742 271.602 203.874 270.946 205.499L268.17 204.546C269.328 202.155 271.678 200.104 275.544 200.104C279.409 200.104 281.487 202.189 280.84 205.865L279.741 212.084C279.631 212.697 279.886 213.003 280.44 213.003H281.725L281.257 215.641H278.898C277.485 215.641 276.651 214.841 276.872 213.59L276.889 213.497H276.395C275.765 214.475 274.377 216.066 271.253 216.066C268.128 216.066 265.889 214.348 266.425 211.285H266.433ZM277.127 209.379L277.179 209.072H272.768C271.082 209.072 269.848 209.804 269.609 211.182C269.371 212.561 270.316 213.446 272.181 213.446C274.692 213.446 276.685 211.914 277.127 209.37V209.379Z" fill="#BE5FDB"/>
<path d="M286.995 200.53H290.095L289.694 202.793H290.188C290.989 201.568 292.53 200.283 295.442 200.283C298.873 200.283 300.933 202.674 300.252 206.562L298.651 215.624H295.493L297.051 206.801C297.519 204.163 296.344 202.972 294.045 202.972C291.44 202.972 289.413 204.75 288.834 207.992L287.489 215.615H284.33L286.995 200.513V200.53Z" fill="#BE5FDB"/>
<path d="M306.008 196.335C306.238 195.05 307.302 194.191 308.562 194.191C309.822 194.191 310.589 195.05 310.359 196.335C310.129 197.62 309.03 198.479 307.804 198.479C306.578 198.479 305.778 197.62 306.008 196.335ZM305.846 200.53H309.005L306.34 215.632H303.181L305.846 200.53Z" fill="#BE5FDB"/>
<path d="M311.099 211.77L321.453 203.618L321.529 203.193H312.921L313.39 200.53H325.437L324.748 204.418L314.36 212.561L314.292 212.961H323.488L323.019 215.624H310.427L311.108 211.761L311.099 211.77Z" fill="#BE5FDB"/>
<path d="M326.689 211.285C327.226 208.222 329.959 206.63 333.271 206.63H337.868L338.039 205.652C338.345 203.908 337.511 202.742 335.306 202.742C333.1 202.742 331.857 203.874 331.202 205.499L328.426 204.546C329.584 202.155 331.934 200.104 335.799 200.104C339.665 200.104 341.742 202.189 341.095 205.865L339.997 212.084C339.886 212.697 340.142 213.003 340.695 213.003H341.981L341.512 215.641H339.154C337.741 215.641 336.906 214.841 337.128 213.59L337.145 213.497H336.651C336.021 214.475 334.633 216.066 331.508 216.066C328.383 216.066 326.144 214.348 326.681 211.285H326.689ZM337.383 209.379L337.434 209.072H333.024C331.338 209.072 330.103 209.804 329.865 211.182C329.627 212.561 330.572 213.446 332.436 213.446C334.948 213.446 336.94 211.914 337.383 209.37V209.379Z" fill="#BE5FDB"/>
<path d="M346.927 221.325L347.941 219.393C348.588 219.734 349.363 220.006 350.41 220.006C351.236 220.006 351.908 219.699 352.019 219.053C352.13 218.406 351.687 218.134 350.682 218.134H349.55L350.078 215.99C346.331 215.53 343.999 212.74 344.79 208.273L344.859 207.873C345.718 203.006 349.601 200.096 353.986 200.096C358.371 200.096 360.329 202.734 360.346 205.916L357.17 206.562C357.247 204.537 356.217 202.921 353.552 202.921C350.887 202.921 348.571 204.759 348.009 207.941L347.958 208.213C347.396 211.395 349.099 213.233 351.73 213.233C354.36 213.233 355.987 211.702 356.727 209.591L359.665 210.298C358.515 213.148 356.004 215.598 352.317 215.998L352.062 216.917C353.654 216.917 354.641 217.777 354.352 219.402C354.028 221.24 352.104 222.065 350.171 222.065C348.886 222.065 347.719 221.724 346.927 221.333V221.325Z" fill="#BE5FDB"/>
<path d="M362.16 211.285C362.696 208.222 365.429 206.63 368.741 206.63H373.339L373.509 205.652C373.816 203.908 372.981 202.742 370.776 202.742C368.571 202.742 367.328 203.874 366.672 205.499L363.896 204.546C365.054 202.155 367.404 200.104 371.27 200.104C375.135 200.104 377.213 202.189 376.566 205.865L375.467 212.084C375.357 212.697 375.612 213.003 376.166 213.003H377.451L376.983 215.641H374.625C373.211 215.641 372.377 214.841 372.598 213.59L372.615 213.497H372.121C371.491 214.475 370.103 216.066 366.979 216.066C363.854 216.066 361.615 214.348 362.151 211.285H362.16ZM366.578 197.867L367.839 196.122C368.554 195.17 369.439 194.71 370.444 194.71C371.304 194.71 371.857 195.05 372.402 195.748C372.785 196.174 373.075 196.607 373.569 196.607C374.122 196.607 374.497 196.208 374.846 195.782L375.646 194.744L377.255 195.876L375.97 197.62C375.289 198.539 374.403 199.032 373.39 199.032C372.504 199.032 371.951 198.692 371.398 197.994C371.04 197.569 370.751 197.135 370.231 197.135C369.712 197.135 369.337 197.535 368.98 197.96L368.188 198.973L366.57 197.867H366.578ZM372.854 209.379L372.905 209.072H368.494C366.808 209.072 365.574 209.804 365.335 211.182C365.097 212.561 366.042 213.446 367.907 213.446C370.418 213.446 372.411 211.914 372.854 209.37V209.379Z" fill="#BE5FDB"/>
<path d="M380.244 208.307L380.329 207.847C381.172 203.065 384.978 200.096 389.507 200.096C394.037 200.096 396.83 203.065 395.987 207.847L395.902 208.307C395.05 213.114 391.227 216.058 386.689 216.058C382.151 216.058 379.392 213.114 380.244 208.307ZM392.76 208.222L392.811 207.949C393.364 204.827 391.798 202.929 389.005 202.929C386.212 202.929 384.007 204.827 383.462 207.949L383.411 208.222C382.858 211.378 384.424 213.242 387.183 213.242C389.942 213.242 392.198 211.37 392.76 208.222Z" fill="#BE5FDB"/>
<path d="M406.911 208.281L406.979 207.915C407.813 203.202 411.449 200.104 415.893 200.104C420.338 200.104 422.645 203.167 421.836 207.762L421.623 208.953H410.01C409.635 211.616 411.202 213.301 413.748 213.301C416.14 213.301 417.4 212.076 418.286 210.672L420.687 212.016C419.461 213.761 417.273 216.058 413.203 216.058C408.605 216.058 406.085 212.961 406.911 208.281ZM418.873 206.537C419.086 204.274 417.741 202.895 415.382 202.895C413.024 202.895 411.185 204.274 410.478 206.537H418.873Z" fill="#BE5FDB"/>
<path d="M435.757 194.191H444.28C448.231 194.191 450.649 196.642 449.95 200.589L449.882 200.989C449.176 204.971 445.778 207.388 441.947 207.388H436.736L435.28 215.624H431.968L435.749 194.183L435.757 194.191ZM442.143 204.393C444.442 204.393 446.204 203.108 446.579 200.964L446.63 200.658C447.013 198.479 445.77 197.195 443.411 197.195H438.541L437.273 204.393H442.143Z" fill="#BE5FDB"/>
<path d="M453.22 200.53H456.319L456.004 202.308H456.498C457.213 201.049 458.388 200.47 460.006 200.47H461.811L461.308 203.321H459.376C457.324 203.321 455.689 204.427 455.28 206.75L453.714 215.632H450.555L453.22 200.53Z" fill="#BE5FDB"/>
<path d="M462.415 208.307L462.5 207.847C463.343 203.065 467.149 200.096 471.679 200.096C476.208 200.096 479.001 203.065 478.158 207.847L478.073 208.307C477.222 213.114 473.399 216.058 468.861 216.058C464.322 216.058 461.564 213.114 462.415 208.307ZM474.94 208.222L474.991 207.949C475.544 204.827 473.978 202.929 471.185 202.929C468.392 202.929 466.187 204.827 465.642 207.949L465.591 208.222C465.038 211.378 466.604 213.242 469.363 213.242C472.121 213.242 474.378 211.37 474.94 208.222Z" fill="#BE5FDB"/>
<path d="M481.266 208.307L481.351 207.847C482.211 202.98 485.906 200.096 489.704 200.096C492.649 200.096 493.867 201.355 494.352 202.58H494.846L496.328 194.191H499.486L495.706 215.632H492.607L492.982 213.488H492.488C491.492 214.807 489.831 216.058 486.885 216.058C483.114 216.058 480.397 213.207 481.266 208.307ZM493.884 208.222L493.935 207.949C494.506 204.699 492.862 202.895 490.104 202.895C487.345 202.895 485.097 204.699 484.527 207.949L484.476 208.222C483.905 211.472 485.574 213.301 488.265 213.301C490.955 213.301 493.305 211.463 493.884 208.222Z" fill="#BE5FDB"/>
<path d="M501.275 209.6L502.875 200.538H506.034L504.476 209.387C504.016 211.991 505.183 213.216 507.507 213.216C510.112 213.216 512.113 211.438 512.692 208.162L514.037 200.538H517.196L514.531 215.641H511.432L511.832 213.378H511.338C510.538 214.637 508.989 215.922 506.111 215.922C502.645 215.922 500.593 213.505 501.275 209.608V209.6Z" fill="#BE5FDB"/>
<path d="M522.381 212.595L524.042 203.193H519.87L520.338 200.53H524.51L525.387 195.535H528.546L527.669 200.53H532.173L531.705 203.193H527.2L525.642 212.042C525.532 212.654 525.753 212.961 526.34 212.961H529.499L529.031 215.624H524.859C522.986 215.624 522.058 214.458 522.39 212.595H522.381Z" fill="#BE5FDB"/>
<path d="M536.038 196.335C536.268 195.05 537.332 194.191 538.592 194.191C539.853 194.191 540.619 195.05 540.389 196.335C540.159 197.62 539.061 198.479 537.835 198.479C536.609 198.479 535.808 197.62 536.038 196.335ZM535.885 200.53H539.044L536.379 215.632H533.22L535.885 200.53Z" fill="#BE5FDB"/>
<path d="M542.135 200.53H545.472L547.235 213.301H547.728L553.995 200.53H557.333L549.585 215.632H544.561L542.135 200.53Z" fill="#BE5FDB"/>
<path d="M560.559 196.335C560.789 195.05 561.854 194.191 563.114 194.191C564.374 194.191 565.14 195.05 564.91 196.335C564.68 197.62 563.582 198.479 562.356 198.479C561.13 198.479 560.33 197.62 560.559 196.335ZM560.406 200.53H563.565L560.9 215.632H557.741L560.406 200.53Z" fill="#BE5FDB"/>
<path d="M566.145 208.307L566.23 207.847C567.09 202.98 570.785 200.096 574.582 200.096C577.528 200.096 578.746 201.355 579.231 202.58H579.725L581.207 194.191H584.365L580.585 215.632H577.486L577.86 213.488H577.367C576.37 214.807 574.71 216.058 571.764 216.058C567.992 216.058 565.276 213.207 566.145 208.307ZM578.754 208.222L578.806 207.949C579.376 204.699 577.733 202.895 574.974 202.895C572.216 202.895 569.968 204.699 569.397 207.949L569.346 208.222C568.776 211.472 570.445 213.301 573.135 213.301C575.826 213.301 578.175 211.463 578.754 208.222Z" fill="#BE5FDB"/>
<path d="M585.021 211.285C585.557 208.222 588.29 206.63 591.602 206.63H596.2L596.37 205.652C596.677 203.908 595.843 202.742 593.637 202.742C591.432 202.742 590.189 203.874 589.533 205.499L586.758 204.546C587.916 202.155 590.266 200.104 594.131 200.104C597.997 200.104 600.074 202.189 599.427 205.865L598.329 212.084C598.218 212.697 598.474 213.003 599.027 213.003H600.313L599.844 215.641H597.486C596.072 215.641 595.238 214.841 595.459 213.59L595.476 213.497H594.983C594.353 214.475 592.965 216.066 589.84 216.066C586.715 216.066 584.476 214.348 585.012 211.285H585.021ZM595.715 209.379L595.766 209.072H591.356C589.67 209.072 588.435 209.804 588.197 211.182C587.958 212.561 588.903 213.446 590.768 213.446C593.28 213.446 595.272 211.914 595.715 209.37V209.379Z" fill="#BE5FDB"/>
<path d="M603.105 208.307L603.19 207.847C604.05 202.98 607.746 200.096 611.543 200.096C614.489 200.096 615.706 201.355 616.192 202.58H616.686L618.167 194.191H621.326L617.546 215.632H614.446L614.821 213.488H614.327C613.331 214.807 611.671 216.058 608.725 216.058C604.953 216.058 602.237 213.207 603.105 208.307ZM615.723 208.222L615.775 207.949C616.345 204.699 614.702 202.895 611.943 202.895C609.184 202.895 606.937 204.699 606.366 207.949L606.315 208.222C605.745 211.472 607.413 213.301 610.104 213.301C612.794 213.301 615.144 211.463 615.723 208.222Z" fill="#BE5FDB"/>
<path d="M622.756 208.281L622.824 207.915C623.659 203.202 627.294 200.104 631.739 200.104C636.183 200.104 638.491 203.167 637.682 207.762L637.469 208.953H625.855C625.481 211.616 627.047 213.301 629.593 213.301C631.986 213.301 633.246 212.076 634.131 210.672L636.532 212.016C635.306 213.761 633.118 216.058 629.048 216.058C624.45 216.058 621.93 212.961 622.756 208.281ZM634.71 206.537C634.923 204.274 633.578 202.895 631.219 202.895C628.861 202.895 627.022 204.274 626.315 206.537H634.71Z" fill="#BE5FDB"/>
<defs>
<linearGradient id="paint0_linear_341_239" x1="155.495" y1="154.023" x2="45.8803" y2="83.3053" gradientUnits="userSpaceOnUse">
<stop/>
<stop offset="0.65" stop-color="white" stop-opacity="0"/>
</linearGradient>
<linearGradient id="paint1_linear_341_239" x1="194.718" y1="44.6832" x2="40.6983" y2="133.556" gradientUnits="userSpaceOnUse">
<stop stop-color="white"/>
<stop offset="0.2" stop-color="#FFF5E7"/>
<stop offset="0.42" stop-color="#BE5FDB"/>
<stop offset="0.68" stop-color="#4D30B5"/>
<stop offset="0.88"/>
</linearGradient>
<linearGradient id="paint2_linear_341_239" x1="86.6997" y1="15.4907" x2="206.269" y2="52.0489" gradientUnits="userSpaceOnUse">
<stop stop-color="#C165DC"/>
<stop offset="1" stop-color="#FFB44C"/>
</linearGradient>
</defs>
</svg>
