<svg width="10" height="13" viewBox="0 0 10 13" fill="none" xmlns="http://www.w3.org/2000/svg">
<path d="M1.09175 12.0417C0.800082 12.0417 0.552165 11.9396 0.347998 11.7354C0.143831 11.5313 0.041748 11.2833 0.041748 10.9917V3.17501C0.041748 2.88334 0.143831 2.63542 0.347998 2.43126C0.552165 2.22709 0.800082 2.12501 1.09175 2.12501H1.90841V0.885422H2.798V2.12501H7.21675V0.885422H8.09175V2.12501H8.90842C9.20008 2.12501 9.448 2.22709 9.65217 2.43126C9.85633 2.63542 9.95842 2.88334 9.95842 3.17501V10.9917C9.95842 11.2833 9.85633 11.5313 9.65217 11.7354C9.448 11.9396 9.20008 12.0417 8.90842 12.0417H1.09175ZM1.09175 11.1667H8.90842C8.9473 11.1667 8.98619 11.1472 9.02508 11.1083C9.06397 11.0694 9.08342 11.0306 9.08342 10.9917V5.50834H0.916748V10.9917C0.916748 11.0306 0.936193 11.0694 0.975081 11.1083C1.01397 11.1472 1.05286 11.1667 1.09175 11.1667ZM0.916748 4.63334H9.08342V3.17501C9.08342 3.13612 9.06397 3.09723 9.02508 3.05834C8.98619 3.01945 8.9473 3.00001 8.90842 3.00001H1.09175C1.05286 3.00001 1.01397 3.01945 0.975081 3.05834C0.936193 3.09723 0.916748 3.13612 0.916748 3.17501V4.63334Z" fill="#E8E8F6"/>
</svg>
